<?xml version="1.0" standalone="no"?>
<!DOCTYPE svg PUBLIC "-//W3C//DTD SVG 20010904//EN"
 "http://www.w3.org/TR/2001/REC-SVG-20010904/DTD/svg10.dtd">
<svg version="1.0" xmlns="http://www.w3.org/2000/svg"
 width="300.000000pt" height="134.000000pt" viewBox="0 0 300.000000 134.000000"
 preserveAspectRatio="xMidYMid meet">
<metadata>
Created by potrace 1.10, written by Peter Selinger 2001-2011
</metadata>
<g transform="translate(0.000000,134.000000) scale(0.100000,-0.100000)"
fill="#000000" stroke="none">
<path d="M263 1179 c-85 -42 -108 -130 -51 -195 41 -46 83 -64 150 -64 136 0
223 118 156 212 -46 65 -172 89 -255 47z m173 -35 c88 -42 84 -132 -7 -168
-53 -21 -94 -20 -144 4 -61 30 -82 84 -47 126 42 52 132 69 198 38z"/>
<path d="M796 1177 c-54 -30 -81 -69 -81 -117 0 -147 255 -192 343 -60 43 64
9 150 -75 186 -51 22 -141 18 -187 -9z m167 -31 c93 -39 93 -133 0 -172 -94
-40 -203 10 -203 91 0 73 115 119 203 81z"/>
<path d="M1876 1168 c-17 -15 -43 -63 -71 -133 -55 -140 -111 -303 -105 -308
3 -2 17 -7 32 -11 27 -6 30 -2 77 92 60 120 69 129 110 108 l30 -16 3 -108 3
-107 27 -3 c29 -4 36 10 58 128 20 106 3 195 -61 325 -30 60 -61 70 -103 33z
m62 -51 c4 -18 -14 -22 -37 -8 -7 5 -10 14 -6 20 10 17 39 9 43 -12z m-5 -58
c42 -11 51 -39 13 -39 -13 0 -30 -2 -38 -5 -21 -8 -52 19 -45 39 7 19 18 20
70 5z m-63 -74 c8 -9 9 -19 4 -23 -5 -4 -24 -20 -42 -37 l-32 -29 15 50 c8 27
15 50 15 52 0 9 30 -1 40 -13z m135 -46 c5 -33 3 -55 -4 -62 -8 -8 -11 -7 -11
5 0 9 -18 32 -40 52 -34 31 -38 37 -23 42 10 3 27 9 38 14 28 11 32 6 40 -51z"/>
<path d="M1370 1129 c-25 -4 -66 -8 -92 -8 -27 -1 -48 -5 -48 -11 0 -5 4 -10
9 -10 5 0 -2 -30 -15 -68 -27 -78 -49 -203 -41 -226 19 -49 104 28 131 119 26
83 38 92 35 26 -3 -58 4 -67 45 -57 14 3 30 21 41 46 29 65 43 52 32 -32 -16
-125 -15 -143 9 -146 36 -5 92 25 114 60 27 45 70 176 70 215 0 72 -144 118
-290 92z m202 -56 c47 -19 53 -39 33 -110 -28 -97 -65 -153 -100 -153 -3 0 -3
34 1 75 5 60 4 79 -10 100 -21 32 -37 32 -75 0 l-30 -26 -16 31 c-29 57 -69
33 -100 -61 -19 -57 -45 -84 -45 -47 0 29 26 133 43 167 10 23 22 28 87 38 84
13 157 8 212 -14z"/>
<path d="M2134 1063 c3 -10 10 -39 15 -64 6 -26 15 -59 21 -74 9 -24 6 -31
-20 -61 -52 -60 -77 -145 -46 -157 8 -3 31 5 51 18 42 29 91 55 102 55 4 0 35
-25 68 -55 32 -30 62 -55 66 -55 3 0 10 10 16 23 8 16 6 32 -7 62 -38 89 -35
119 15 175 13 14 32 43 44 65 18 34 19 41 7 53 -12 12 -22 12 -67 -3 -30 -10
-67 -24 -82 -32 -19 -9 -32 -11 -40 -5 -21 18 -125 72 -137 72 -6 0 -9 -8 -6
-17z m106 -78 c33 -19 69 -19 115 1 20 8 41 14 46 12 5 -2 -7 -28 -26 -58 -32
-49 -36 -61 -33 -113 3 -59 -1 -67 -21 -43 -30 36 -71 36 -153 1 -28 -11 -22
11 13 55 28 35 31 44 26 83 -3 23 -9 51 -13 60 -8 21 11 22 46 2z"/>
<path d="M904 681 c-16 -10 -45 -42 -63 -70 -37 -58 -74 -81 -168 -105 l-61
-16 -67 30 c-37 17 -95 52 -129 79 -75 59 -116 71 -145 42 -17 -17 -20 -29
-15 -64 13 -96 49 -131 169 -165 161 -46 275 -50 360 -12 151 67 306 245 249
287 -26 19 -94 16 -130 -6z m91 -32 c20 -31 -99 -145 -209 -201 -59 -30 -63
-30 -166 -25 -106 6 -231 34 -274 62 -28 19 -46 56 -46 95 0 43 26 39 96 -16
76 -60 177 -107 229 -107 43 0 142 32 182 58 13 9 40 38 59 66 48 66 110 99
129 68z"/>
<path d="M1650 551 c-12 -38 -20 -76 -18 -85 2 -11 33 -27 86 -45 95 -33 122
-53 122 -90 0 -35 -10 -48 -44 -61 -46 -17 -178 17 -210 53 l-18 22 -24 -28
c-13 -16 -24 -40 -24 -56 0 -22 7 -29 37 -40 151 -55 280 -52 347 7 30 27 56
93 56 144 0 59 -21 77 -117 103 -70 18 -102 35 -67 35 10 0 35 -4 54 -9 19 -5
52 -12 72 -15 36 -7 37 -6 49 34 7 22 10 42 8 44 -11 9 -220 56 -251 56 -35 0
-36 -1 -58 -69z m150 9 l55 -18 -41 -1 c-27 -1 -47 -8 -58 -20 -28 -31 -3 -58
76 -82 69 -20 88 -38 88 -79 0 -31 -37 -98 -62 -111 l-21 -11 21 30 c51 71 5
149 -109 187 -64 21 -64 21 -63 58 1 41 18 67 43 66 9 0 41 -8 71 -19z"/>
</g>
</svg>
