<svg width="800" height="600" xmlns="http://www.w3.org/2000/svg">

 <g>
  <title>Layer 1</title>
  <path d="m151.59999,105.19999c-1,0 -1.82375,-0.48626 -4,-1c-3.89299,-0.91901 -8,0 -15,3c-7,3 -9.75532,5.132 -12,9c-1.80972,3.11848 -3.32993,8.01363 -3,12.00001c0.50171,6.06204 2.72962,11.22885 7,16c3.77267,4.21509 8.80965,7.56731 17,10c8.83794,2.62503 19.83098,1.43497 29,-1c4.92821,-1.30876 7.99808,-2.25937 10,-6c2.40601,-4.49568 2,-11 2,-19c0,-7.00001 0,-12.00001 -1,-16.00001c-1,-4 -1.69255,-5.186 -3,-7c-0.8269,-1.14727 -2.69344,-2.4588 -4,-3c-0.92387,-0.38268 -2,-1 -4,-1c-3,0 -9,1 -15,3c-6,2 -10,3 -10,3l-1,0" id="svg_1" stroke="#000" fill="none"/>
  <path d="m554.59998,107.19999c-1,1 -2.86829,1.28859 -7,3c-5.84314,2.4203 -13.198,3.63297 -19,7c-6.23694,3.61945 -9.8244,6.09789 -11,8c-0.52576,0.85065 -0.29291,2.2929 -1,3.00001c-2.12134,2.12132 -0.26855,5.07689 1,9c1.65686,5.12395 4.85272,10.1731 6,11c1.81396,1.30745 4.7699,2.54863 9,4c4.823,1.65482 10.79028,2.99023 18,4c6.93231,0.9709 11.06458,0.80092 16,0c3.12146,-0.50655 4.41156,-3.40401 8,-8c3.48132,-4.45877 7.85114,-7.48531 10,-12c1.77197,-3.7229 1,-8 1,-12.00001c0,-4 -2.59399,-8.51301 -5,-10c-2.69,-1.66251 -5.01501,-1.75563 -7,-2c-4.09222,-0.50378 -6.82373,-2.48626 -9,-3c-2.91974,-0.68926 -4,-1 -5,-1c-2,0 -2,0 -4,-1l-2,0l-4,0l-1,0" id="svg_2" stroke="#000" fill="none"/>
  <path d="m210.59999,338.19998c0,2 0,5 1,8c1,3 2.31021,6.71899 5,10c2.28587,2.78833 7.68245,8.52313 14,12c8.62845,4.74869 11.04132,4.84723 15,6c9.10851,2.6524 18.77739,6.81201 31.99998,10c16.7818,4.04611 36.00693,3.50058 54,4c18.02081,0.50018 35,1 47,1c11,0 20.90356,-1.2709 29,-4c9.89337,-3.33481 18.44547,-6.44797 26,-13c8.547,-7.41275 16.52731,-17.65088 23,-28c5.45941,-8.72897 9.83179,-16.52216 13,-23c1.38934,-2.84073 2,-4 3,-5l0,0" id="svg_3" stroke="#000" fill="none"/>
  <path d="m449.59998,293.19998c0,1 -0.28326,1.56723 -2,3c-3.83875,3.20374 -7,8 -11,11c-4,3 -7.9183,5.11215 -12,8c-2.94336,2.08246 -5.81265,5.20682 -8,7c-2.78833,2.28589 -5.81265,4.20682 -8,6c-2.78833,2.28589 -6.06601,3.87766 -8,5c-3.11847,1.80972 -6.07843,2.78986 -9,4c-6.19757,2.56711 -9.80963,4.56729 -18,7c-8.83795,2.62503 -18.88535,4.99707 -32,6c-10.96799,0.83875 -22,1 -32,1c-9,0 -16,0 -22,0c-5,0 -9,0 -13,-1c-4,-1 -8.30447,-0.46927 -12,-2c-2.61313,-1.0824 -3.87766,-3.06601 -5,-5c-1.80971,-3.11847 -3.49294,-8.23401 -5.99998,-13c-1.67856,-3.19098 -4.34619,-5.70547 -6,-8c-1.30745,-1.814 -2.09789,-2.82443 -4,-4c-0.85065,-0.52573 -3.07613,-1.61731 -4,-2c-1.30656,-0.5412 -3.4588,-1.69345 -4,-3c-0.38269,-0.92389 -2,-2 -4,-4c-1,-1 -3,-2 -4,-3c-1,-1 -2.07613,-0.61731 -3,-1c-1.30656,-0.5412 -1,-1 -2,-1c-1,0 -2,0 -3,0c-1,0 -2.186,0.69254 -4,2c-1.14726,0.8269 -2.58578,0.58578 -4,2c-1.41422,1.41422 0,3 -1,4c0,0 0,1 0,2c0,1 0,2 0,3c0,1 0,2 0,3c0,1 0,3 1,4c0,0 0.4588,0.69345 1,2c0.38269,0.92389 0.29289,1.29291 1,2c0.70711,0.70709 1,0 1,1c0,1 0,2 0,3c0,0 -0.29289,0.29291 -1,1c-0.70711,0.70709 0.70711,2.29291 0,3c-0.70711,0.70709 -1,0 -1,1l0,1" id="svg_4" stroke="#000" fill="none"/>
  <path d="m469.59998,318.19998c0,-1 1,-1 1,-2c0,-1 0.29291,-1.29291 1,-2c0.70709,-0.70709 0,-2 0,-2c0,-1 0,-2 0,-3c0,-1 0.30746,-1.186 -1,-3c-0.8269,-1.14728 -1,-2 -1,-3c0,-1 -1.29291,-1.29291 -2,-2c-0.70709,-0.70709 -1.4588,-0.69345 -2,-2c-0.38269,-0.92389 -0.29291,-0.29291 -1,-1c-0.70709,-0.70709 -0.29291,-1.29291 -1,-2c-0.70709,-0.70709 -2,0 -2,0c-1,-1 -2,-1 -4,-2c0,0 -1.82376,-0.48627 -4,-1c-0.97324,-0.22977 -3,0 -4,0l0,0l-1,0l-1,0" id="svg_5" stroke="#000" fill="none"/>
 </g>
</svg>